<svg width="24" height="24" viewBox="0 0 24 24" fill="none" xmlns="http://www.w3.org/2000/svg">
<path d="M18.496 17.3653C20.136 15.4587 21.0347 13.0587 21.0347 10.5173C21.0347 7.70933 19.9413 5.06667 17.9547 3.08C15.968 1.09333 13.3253 0 10.5173 0C7.70933 0 5.06667 1.09333 3.08 3.08C1.09333 5.06667 0 7.70667 0 10.5173C0 13.3253 1.09333 15.968 3.08 17.9547C5.06667 19.9413 7.70667 21.0347 10.5173 21.0347C13.0587 21.0347 15.4587 20.136 17.3653 18.496L22.6347 23.7653C22.7893 23.9227 22.9947 24 23.2 24C23.4053 24 23.6107 23.9227 23.7653 23.7653C24.0773 23.4533 24.0773 22.9467 23.7653 22.6347L18.496 17.3653ZM16.8213 16.8213C15.1387 18.5067 12.8987 19.432 10.5147 19.432C8.13067 19.432 5.89333 18.504 4.208 16.8213C2.528 15.1387 1.6 12.8987 1.6 10.5173C1.6 8.136 2.528 5.896 4.21067 4.21067C5.896 2.528 8.136 1.6 10.5173 1.6C12.8987 1.6 15.1387 2.528 16.824 4.21067C18.5093 5.896 19.4347 8.13333 19.4347 10.5173C19.4347 12.9013 18.5067 15.1387 16.8213 16.8213Z" fill="#F8B400"/>
</svg>
